<?xml version="1.0" encoding="UTF-8" standalone="no" ?>
<!DOCTYPE svg PUBLIC "-//W3C//DTD SVG 1.1//EN" "http://www.w3.org/Graphics/SVG/1.1/DTD/svg11.dtd">
<svg xmlns="http://www.w3.org/2000/svg" xmlns:xlink="http://www.w3.org/1999/xlink" version="1.1" width="500" height="500" viewBox="0 0 500 500" xml:space="preserve">
<desc>Created with Fabric.js 3.6.3</desc>
<defs>
</defs>
<g transform="matrix(0.9999981570651764 0.0019198609977999998 -0.0019198609977999998 0.9999981570651764 322.71623356658006 241.5937443109899)" style=""  ><path fill="url(#CUSTOM_SVGID_531)" opacity="1" d="M-121.44-7.63L-121.44-5.69L-137.27-5.69L-137.27-26.20L-122.15-26.20L-122.15-24.27L-133.87-24.27L-133.87-16.92L-124.61-16.92L-124.61-14.98L-133.87-14.98L-133.87-7.63L-121.44-7.63Z"/>
    <linearGradient id="CUSTOM_SVGID_531" gradientUnits="userSpaceOnUse" gradientTransform="matrix(1 0 0 1 -139.90274232587848 -31.453549999999808)"  x1="0" y1="0" x2="279.80548465175696" y2="62.907099999999616">
      <stop  offset="0" style="stop-color:#0df;stop-opacity:undefined"/><stop  offset="1" style="stop-color:#ff00d4;stop-opacity:undefined"/>
    </linearGradient>
  <path fill="url(#CUSTOM_SVGID_532)" opacity="1" d="M-101.58-11.94L-101.58-11.94Q-101.58-8.98-104.07-7.10Q-106.56-5.23-109.96-5.23L-109.96-5.23Q-114.15-5.23-118.28-7.34L-118.28-7.34L-118.28-8.98Q-114.65-7.16-109.96-7.16L-109.96-7.16Q-107.91-7.16-106.38-8.23Q-104.86-9.30-104.86-11.03L-104.86-11.03Q-104.86-13.90-110.31-14.87L-110.31-14.87Q-113.53-15.45-115.69-16.92Q-117.84-18.38-117.84-20.78L-117.84-20.78Q-117.84-23.45-115.50-25.06Q-113.15-26.67-109.96-26.67L-109.96-26.67Q-106.53-26.67-103.22-24.56L-103.22-24.56L-103.22-22.92Q-106.12-24.74-109.96-24.74L-109.96-24.74Q-111.83-24.74-113.20-23.93Q-114.56-23.13-114.56-21.69L-114.56-21.69Q-114.56-21.17-114.37-20.75Q-114.18-20.34-113.77-20.05Q-113.36-19.76-112.98-19.55Q-112.60-19.35-111.91-19.16Q-111.22-18.97-110.82-18.89Q-110.43-18.82-109.64-18.67L-109.64-18.67Q-108.05-18.38-106.65-17.84Q-105.24-17.30-104.08-16.48Q-102.93-15.66-102.25-14.48Q-101.58-13.31-101.58-11.94Z"/>
    <linearGradient id="CUSTOM_SVGID_532" gradientUnits="userSpaceOnUse" gradientTransform="matrix(1 0 0 1 -139.90274232587848 -31.453549999999808)"  x1="0" y1="0" x2="279.80548465175696" y2="62.907099999999616">
      <stop  offset="0" style="stop-color:#0df;stop-opacity:undefined"/><stop  offset="1" style="stop-color:#ff00d4;stop-opacity:undefined"/>
    </linearGradient>
  <path fill="url(#CUSTOM_SVGID_533)" opacity="1" d="M-82.59-26.20L-82.59-24.27L-89.59-24.27L-89.59-5.69L-92.99-5.69L-92.99-24.27L-100.00-24.27L-100.00-26.20L-82.59-26.20Z"/>
    <linearGradient id="CUSTOM_SVGID_533" gradientUnits="userSpaceOnUse" gradientTransform="matrix(1 0 0 1 -139.90274232587848 -31.453549999999808)"  x1="0" y1="0" x2="279.80548465175696" y2="62.907099999999616">
      <stop  offset="0" style="stop-color:#0df;stop-opacity:undefined"/><stop  offset="1" style="stop-color:#ff00d4;stop-opacity:undefined"/>
    </linearGradient>
  <path fill="url(#CUSTOM_SVGID_534)" opacity="1" d="M-63.78-11.94L-63.78-11.94Q-63.78-8.98-66.27-7.10Q-68.76-5.23-72.16-5.23L-72.16-5.23Q-76.35-5.23-80.48-7.34L-80.48-7.34L-80.48-8.98Q-76.85-7.16-72.16-7.16L-72.16-7.16Q-70.11-7.16-68.59-8.23Q-67.06-9.30-67.06-11.03L-67.06-11.03Q-67.06-13.90-72.51-14.87L-72.51-14.87Q-75.74-15.45-77.89-16.92Q-80.04-18.38-80.04-20.78L-80.04-20.78Q-80.04-23.45-77.70-25.06Q-75.35-26.67-72.16-26.67L-72.16-26.67Q-68.73-26.67-65.42-24.56L-65.42-24.56L-65.42-22.92Q-68.32-24.74-72.16-24.74L-72.16-24.74Q-74.04-24.74-75.40-23.93Q-76.76-23.13-76.76-21.69L-76.76-21.69Q-76.76-21.17-76.57-20.75Q-76.38-20.34-75.97-20.05Q-75.56-19.76-75.18-19.55Q-74.80-19.35-74.11-19.16Q-73.42-18.97-73.03-18.89Q-72.63-18.82-71.84-18.67L-71.84-18.67Q-70.26-18.38-68.85-17.84Q-67.44-17.30-66.29-16.48Q-65.13-15.66-64.46-14.48Q-63.78-13.31-63.78-11.94Z"/>
    <linearGradient id="CUSTOM_SVGID_534" gradientUnits="userSpaceOnUse" gradientTransform="matrix(1 0 0 1 -139.90274232587848 -31.453549999999808)"  x1="0" y1="0" x2="279.80548465175696" y2="62.907099999999616">
      <stop  offset="0" style="stop-color:#0df;stop-opacity:undefined"/><stop  offset="1" style="stop-color:#ff00d4;stop-opacity:undefined"/>
    </linearGradient>
  <path fill="url(#CUSTOM_SVGID_535)" opacity="1" d="M-42.16-26.20L-42.16-5.69L-45.56-5.69L-45.56-14.98L-56.16-14.98L-56.16-5.69L-59.56-5.69L-59.56-26.20L-56.16-26.20L-56.16-16.92L-45.56-16.92L-45.56-26.20L-42.16-26.20Z"/>
    <linearGradient id="CUSTOM_SVGID_535" gradientUnits="userSpaceOnUse" gradientTransform="matrix(1 0 0 1 -139.90274232587848 -31.453549999999808)"  x1="0" y1="0" x2="279.80548465175696" y2="62.907099999999616">
      <stop  offset="0" style="stop-color:#0df;stop-opacity:undefined"/><stop  offset="1" style="stop-color:#ff00d4;stop-opacity:undefined"/>
    </linearGradient>
  <path fill="url(#CUSTOM_SVGID_536)" opacity="1" d="M-25.63-14.78L-19.42-5.69L-23.52-5.69L-29.47-14.37Q-31.70-14.37-33.75-14.84L-33.75-14.84L-33.75-5.69L-37.15-5.69L-37.15-26.20L-33.81-26.20Q-31.76-26.50-29.47-26.50L-29.47-26.50Q-27.54-26.50-25.97-26.18Q-24.40-25.85-23.16-25.15Q-21.91-24.45-21.22-23.25Q-20.53-22.04-20.53-20.43L-20.53-20.43Q-20.53-15.98-25.63-14.78L-25.63-14.78ZM-25.91-17.47Q-24.40-18.65-24.40-20.43Q-24.40-22.22-25.91-23.39Q-27.42-24.56-29.47-24.56L-29.47-24.56Q-31.73-24.56-33.75-24.27L-33.75-24.27L-33.75-16.77Q-31.70-16.30-29.47-16.30L-29.47-16.30Q-27.42-16.30-25.91-17.47Z"/>
    <linearGradient id="CUSTOM_SVGID_536" gradientUnits="userSpaceOnUse" gradientTransform="matrix(1 0 0 1 -139.90274232587848 -31.453549999999808)"  x1="0" y1="0" x2="279.80548465175696" y2="62.907099999999616">
      <stop  offset="0" style="stop-color:#0df;stop-opacity:undefined"/><stop  offset="1" style="stop-color:#ff00d4;stop-opacity:undefined"/>
    </linearGradient>
  <path fill="url(#CUSTOM_SVGID_537)" opacity="1" d="M2.09-26.20L2.09-5.69L-0.49-5.69L-14.59-21.78L-14.59-5.69L-16.52-5.69L-16.52-26.20L-13.94-26.20L0.15-10.12L0.15-26.20L2.09-26.20Z"/>
    <linearGradient id="CUSTOM_SVGID_537" gradientUnits="userSpaceOnUse" gradientTransform="matrix(1 0 0 1 -139.90274232587848 -31.453549999999808)"  x1="0" y1="0" x2="279.80548465175696" y2="62.907099999999616">
      <stop  offset="0" style="stop-color:#0df;stop-opacity:undefined"/><stop  offset="1" style="stop-color:#ff00d4;stop-opacity:undefined"/>
    </linearGradient>
  <path fill="url(#CUSTOM_SVGID_538)" opacity="1" d="M10.76-26.20L10.76-5.69L7.36-5.69L7.36-26.20L10.76-26.20Z"/>
    <linearGradient id="CUSTOM_SVGID_538" gradientUnits="userSpaceOnUse" gradientTransform="matrix(1 0 0 1 -139.90274232587848 -31.453549999999808)"  x1="0" y1="0" x2="279.80548465175696" y2="62.907099999999616">
      <stop  offset="0" style="stop-color:#0df;stop-opacity:undefined"/><stop  offset="1" style="stop-color:#ff00d4;stop-opacity:undefined"/>
    </linearGradient>
  <path fill="url(#CUSTOM_SVGID_540)" opacity="1" d="M-121.34 6.55Q-120.65 7.75-120.65 9.37Q-120.65 10.98-121.34 12.18Q-122.03 13.38-123.27 14.08Q-124.52 14.79-126.09 15.11Q-127.66 15.43-129.59 15.43L-129.59 15.43Q-131.82 15.43-133.87 14.96L-133.87 14.96L-133.87 24.10L-137.27 24.10L-137.27 3.59L-133.93 3.59Q-131.87 3.30-129.59 3.30L-129.59 3.30Q-127.66 3.30-126.09 3.62Q-124.52 3.94-123.27 4.65Q-122.03 5.35-121.34 6.55ZM-126.03 12.32Q-124.52 11.15-124.52 9.37Q-124.52 7.58-126.03 6.41Q-127.54 5.23-129.59 5.23L-129.59 5.23Q-131.85 5.23-133.87 5.53L-133.87 5.53L-133.87 13.03Q-131.82 13.50-129.59 13.50L-129.59 13.50Q-127.54 13.50-126.03 12.32Z"/>
    <linearGradient id="CUSTOM_SVGID_540" gradientUnits="userSpaceOnUse" gradientTransform="matrix(1 0 0 1 -139.90274232587848 -31.453549999999808)"  x1="0" y1="0" x2="279.80548465175696" y2="62.907099999999616">
      <stop  offset="0" style="stop-color:#0df;stop-opacity:undefined"/><stop  offset="1" style="stop-color:#ff00d4;stop-opacity:undefined"/>
    </linearGradient>
  <path fill="url(#CUSTOM_SVGID_541)" opacity="1" d="M-103.78 22.17L-103.78 24.10L-116.43 24.10L-116.43 3.59L-113.03 3.59L-113.03 22.17L-103.78 22.17Z"/>
    <linearGradient id="CUSTOM_SVGID_541" gradientUnits="userSpaceOnUse" gradientTransform="matrix(1 0 0 1 -139.90274232587848 -31.453549999999808)"  x1="0" y1="0" x2="279.80548465175696" y2="62.907099999999616">
      <stop  offset="0" style="stop-color:#0df;stop-opacity:undefined"/><stop  offset="1" style="stop-color:#ff00d4;stop-opacity:undefined"/>
    </linearGradient>
  <path fill="url(#CUSTOM_SVGID_542)" opacity="1" d="M-91.56 3.59L-84.00 24.10L-87.63 24.10L-90.27 16.92L-98.18 16.92L-100.90 24.10L-102.98 24.10L-95.19 3.59L-91.56 3.59ZM-97.45 14.99L-90.97 14.99L-94.17 6.35L-97.45 14.99Z"/>
    <linearGradient id="CUSTOM_SVGID_542" gradientUnits="userSpaceOnUse" gradientTransform="matrix(1 0 0 1 -139.90274232587848 -31.453549999999808)"  x1="0" y1="0" x2="279.80548465175696" y2="62.907099999999616">
      <stop  offset="0" style="stop-color:#0df;stop-opacity:undefined"/><stop  offset="1" style="stop-color:#ff00d4;stop-opacity:undefined"/>
    </linearGradient>
  <path fill="url(#CUSTOM_SVGID_543)" opacity="1" d="M-67.39 3.59L-67.39 5.53L-74.39 5.53L-74.39 24.10L-77.79 24.10L-77.79 5.53L-84.79 5.53L-84.79 3.59L-67.39 3.59Z"/>
    <linearGradient id="CUSTOM_SVGID_543" gradientUnits="userSpaceOnUse" gradientTransform="matrix(1 0 0 1 -139.90274232587848 -31.453549999999808)"  x1="0" y1="0" x2="279.80548465175696" y2="62.907099999999616">
      <stop  offset="0" style="stop-color:#0df;stop-opacity:undefined"/><stop  offset="1" style="stop-color:#ff00d4;stop-opacity:undefined"/>
    </linearGradient>
  <path fill="url(#CUSTOM_SVGID_544)" opacity="1" d="M-49.10 3.59L-49.10 5.53L-60.82 5.53L-60.82 12.88L-51.56 12.88L-51.56 14.82L-60.82 14.82L-60.82 24.10L-64.22 24.10L-64.22 3.59L-49.10 3.59Z"/>
    <linearGradient id="CUSTOM_SVGID_544" gradientUnits="userSpaceOnUse" gradientTransform="matrix(1 0 0 1 -139.90274232587848 -31.453549999999808)"  x1="0" y1="0" x2="279.80548465175696" y2="62.907099999999616">
      <stop  offset="0" style="stop-color:#0df;stop-opacity:undefined"/><stop  offset="1" style="stop-color:#ff00d4;stop-opacity:undefined"/>
    </linearGradient>
  <path fill="url(#CUSTOM_SVGID_545)" opacity="1" d="M-29.06 6.17Q-26.42 9.04-26.42 13.85Q-26.42 18.65-29.06 21.52Q-31.70 24.40-36.30 24.40L-36.30 24.40Q-40.93 24.40-43.56 21.52Q-46.20 18.65-46.20 13.85Q-46.20 9.04-43.56 6.17Q-40.93 3.30-36.30 3.30L-36.30 3.30Q-31.70 3.30-29.06 6.17ZM-31.76 20.10Q-30.29 17.75-30.29 13.85Q-30.29 9.95-31.76 7.59Q-33.22 5.23-36.30 5.23L-36.30 5.23Q-39.40 5.23-40.87 7.59Q-42.33 9.95-42.33 13.85Q-42.33 17.75-40.87 20.10Q-39.40 22.46-36.30 22.46L-36.30 22.46Q-33.22 22.46-31.76 20.10Z"/>
    <linearGradient id="CUSTOM_SVGID_545" gradientUnits="userSpaceOnUse" gradientTransform="matrix(1 0 0 1 -139.90274232587848 -31.453549999999808)"  x1="0" y1="0" x2="279.80548465175696" y2="62.907099999999616">
      <stop  offset="0" style="stop-color:#0df;stop-opacity:undefined"/><stop  offset="1" style="stop-color:#ff00d4;stop-opacity:undefined"/>
    </linearGradient>
  <path fill="url(#CUSTOM_SVGID_546)" opacity="1" d="M-10.95 15.02L-4.74 24.10L-8.84 24.10L-14.79 15.43Q-17.02 15.43-19.07 14.96L-19.07 14.96L-19.07 24.10L-22.47 24.10L-22.47 3.59L-19.13 3.59Q-17.08 3.30-14.79 3.30L-14.79 3.30Q-12.86 3.30-11.29 3.62Q-9.72 3.94-8.48 4.65Q-7.23 5.35-6.54 6.55Q-5.86 7.75-5.86 9.37L-5.86 9.37Q-5.86 13.82-10.95 15.02L-10.95 15.02ZM-11.23 12.32Q-9.72 11.15-9.72 9.37Q-9.72 7.58-11.23 6.41Q-12.74 5.23-14.79 5.23L-14.79 5.23Q-17.05 5.23-19.07 5.53L-19.07 5.53L-19.07 13.03Q-17.02 13.50-14.79 13.50L-14.79 13.50Q-12.74 13.50-11.23 12.32Z"/>
    <linearGradient id="CUSTOM_SVGID_546" gradientUnits="userSpaceOnUse" gradientTransform="matrix(1 0 0 1 -139.90274232587848 -31.453549999999808)"  x1="0" y1="0" x2="279.80548465175696" y2="62.907099999999616">
      <stop  offset="0" style="stop-color:#0df;stop-opacity:undefined"/><stop  offset="1" style="stop-color:#ff00d4;stop-opacity:undefined"/>
    </linearGradient>
  <path fill="url(#CUSTOM_SVGID_547)" opacity="1" d="M20.46 3.59L21.63 24.10L18.23 24.10L17.32 8.52L9.18 24.10L7.92 24.10L-0.08 8.84L-0.96 24.10L-2.90 24.10L-1.72 3.59L1.00 3.59L9.38 19.56L17.73 3.59L20.46 3.59Z"/>
    <linearGradient id="CUSTOM_SVGID_547" gradientUnits="userSpaceOnUse" gradientTransform="matrix(1 0 0 1 -139.90274232587848 -31.453549999999808)"  x1="0" y1="0" x2="279.80548465175696" y2="62.907099999999616">
      <stop  offset="0" style="stop-color:#0df;stop-opacity:undefined"/><stop  offset="1" style="stop-color:#ff00d4;stop-opacity:undefined"/>
    </linearGradient>
  </g><g transform="matrix(0.9001867220739596 -2.2048e-16 2.2048e-16 0.9001867220739596 135.63525626000992 241.34326480647417)"  >
<linearGradient id="SVGID_7354" gradientUnits="userSpaceOnUse" gradientTransform="matrix(1 0 0 1 2.1802229999999696 2.17598000000001)"  x1="0" y1="0" x2="95.64730700000003" y2="95.64438000000001">
<stop offset="0%" style="stop-color:rgb(0,221,255);stop-opacity: 1"/>
<stop offset="100%" style="stop-color:rgb(255,0,212);stop-opacity: 1"/>
</linearGradient>
<path style="stroke: none; stroke-width: 0; stroke-dasharray: none; stroke-linecap: butt; stroke-dashoffset: 0; stroke-linejoin: miter; stroke-miterlimit: 4; fill: url(#SVGID_7354); fill-rule: nonzero; opacity: 1;"  transform=" translate(-50.00387649999998, -49.998170000000016)" d="m 58.812 18.969 l 13.656 7.8867 c 1.9336 -2.5781 5.0312 -4.0156 8.2461 -3.8242 c 3.2188 0.19141 6.125 1.9844 7.7344 4.7734 c 1.6133 2.793 1.7148 6.207 0.26953 9.0898 c -1.4414 2.8789 -4.2383 4.8438 -7.4375 5.2266 v 4.3164 c 1.2227 0.39062 2.1641 1.375 2.4922 2.6133 h 12.922 c 0.625 0 1.1328 0.50781 1.1328 1.1328 s -0.50781 1.1328 -1.1328 1.1328 h -13.035 c -0.1875 0.5 -0.48047 0.95703 -0.86328 1.332 c -0.42188 0.42578 -0.94141 0.74219 -1.5156 0.92578 v 2.9531 c 5.0078 0.58594 8.7383 4.8984 8.6016 9.9375 c -0.13672 5.0391 -4.0938 9.1406 -9.1289 9.457 h -0.12891 l -0.0625 0.003906 h -0.8125 l -0.0625 -0.003906 h -0.12891 c -2.3711 -0.14453 -4.6094 -1.1523 -6.2852 -2.8359 c -0.085938 -0.085938 -0.17188 -0.17188 -0.25 -0.26172 l -13.906 8.0312 h -0.003907 c 0.89844 2.7344 0.52344 5.7305 -1.0234 8.1562 s -4.1016 4.0312 -6.9609 4.3711 v 3.3086 c 0 0.625 -0.50391 1.1289 -1.1289 1.1289 s -1.1289 -0.50391 -1.1289 -1.1289 v -3.3086 c -2.8555 -0.34375 -5.4062 -1.9492 -6.9531 -4.375 c -1.5469 -2.4258 -1.9258 -5.418 -1.0312 -8.1523 l -14.402 -8.3164 c -1.6016 1.5938 -3.7227 2.5586 -5.9766 2.7148 h -0.15234 l -0.007813 0.003906 h -0.27344 l -0.003907 0.003907 h -0.089843 h -0.27344 h -0.09375 h -0.21875 l -0.054687 -0.003907 l -0.078125 -0.003906 h -0.078125 c -4.8438 -0.33594 -8.6328 -4.3008 -8.7539 -9.1523 c -0.12109 -4.8516 3.4688 -9 8.2891 -9.5742 v -2.9609 c -0.57422 -0.18359 -1.0938 -0.5 -1.5156 -0.92188 c -0.37891 -0.37891 -0.67188 -0.83203 -0.85938 -1.3359 h -13.035 c -0.62109 0 -1.1289 -0.50391 -1.1289 -1.1289 s 0.50781 -1.1328 1.1289 -1.1328 h 12.918 c 0.33203 -1.2383 1.2695 -2.2227 2.4922 -2.6133 v -4.3164 c -3.1992 -0.38281 -5.9922 -2.3477 -7.4336 -5.2305 c -1.4414 -2.8789 -1.3359 -6.293 0.27344 -9.082 c 1.6133 -2.7891 4.5195 -4.582 7.7344 -4.7734 c 3.2148 -0.19141 6.3125 1.2461 8.2422 3.8281 l 13.656 -7.8906 c -1.1953 -2.7812 -1.0078 -5.9609 0.50391 -8.582 c 1.5156 -2.6211 4.1758 -4.3711 7.1797 -4.7266 v -2.3555 c 0 -0.62109 0.50781 -1.1289 1.1289 -1.1289 c 0.625 0 1.1289 0.50781 1.1289 1.1289 v 2.3555 c 4.8242 0.57031 8.457 4.6602 8.457 9.5195 c 0.003906 1.3047 -0.26172 2.5938 -0.77344 3.7891 z m -8.8125 57.91 c 1.8555 -0.003906 3.543 1.0859 4.3047 2.7773 c 0.76172 1.6914 0.45703 3.6758 -0.77734 5.0625 c 0.30078 0.125 0.58594 0.25 0.87109 0.39844 c 0.85547 0.44141 1.6367 1.0117 2.3203 1.6875 c 0.99609 -2.2695 0.78125 -4.8867 -0.57422 -6.9609 c -1.3555 -2.0703 -3.668 -3.3203 -6.1445 -3.3164 c -2.4727 0.003906 -4.7773 1.25 -6.1328 3.3242 c -1.3516 2.0703 -1.5703 4.6836 -0.58203 6.9492 c 0.6875 -0.67578 1.4688 -1.2422 2.3242 -1.6836 c 0.28125 -0.14844 0.57031 -0.27734 0.87109 -0.39844 l -0.003907 -0.003906 c -1.2266 -1.3867 -1.5273 -3.3633 -0.76562 -5.0547 c 0.75781 -1.6914 2.4375 -2.7773 4.2891 -2.7812 z m 1.7383 2.9766 c -0.82812 -0.82422 -2.125 -0.95312 -3.0977 -0.30078 c -0.97266 0.65234 -1.3477 1.9023 -0.89844 2.9805 c 0.44922 1.082 1.5977 1.6953 2.7461 1.4648 c 1.1484 -0.23047 1.9727 -1.2383 1.9727 -2.4102 c 0 -0.64844 -0.26172 -1.2734 -0.72266 -1.7344 z m 3.7266 8.8867 c -0.59375 -0.66016 -1.3047 -1.2109 -2.0977 -1.6211 c -2.1133 -1.082 -4.6172 -1.082 -6.7305 0 c -0.78906 0.41016 -1.5 0.96094 -2.0938 1.6211 c 0.089843 0.10547 0.17969 0.20312 0.27734 0.30078 h -0.003906 c 1.332 1.3242 3.1211 2.0938 4.9961 2.1445 h 0.38672 c 0.027343 -0.003906 0.058593 -0.003906 0.089843 0 c 1.8438 -0.070312 3.5938 -0.83594 4.8984 -2.1406 c 0.097656 -0.097656 0.1875 -0.19922 0.27734 -0.30078 z m 2.6914 -9.9336 l 13.527 -7.8047 c -1.6094 -2.8398 -1.6875 -6.2969 -0.21094 -9.207 c 1.4766 -2.9102 4.3086 -4.8906 7.5508 -5.2695 v -2.9609 c -0.57031 -0.18359 -1.0898 -0.5 -1.5156 -0.92188 c -0.37891 -0.37891 -0.67187 -0.83203 -0.85937 -1.3359 h -9.9297 c -0.625 0 -1.1328 -0.50391 -1.1328 -1.1289 s 0.50781 -1.1328 1.1328 -1.1328 h 9.8203 c 0.32422 -1.2383 1.2617 -2.2266 2.4844 -2.6133 v -4.3164 c -3.0039 -0.35938 -5.6641 -2.1133 -7.1797 -4.7344 c -1.5117 -2.6211 -1.6992 -5.8008 -0.50391 -8.582 l -13.656 -7.8828 c -0.27734 0.36719 -0.57812 0.71875 -0.90625 1.0469 c -1.5234 1.5234 -3.5117 2.4883 -5.6523 2.7422 v 7.0664 c 0 0.62109 -0.50391 1.125 -1.1289 1.125 c -0.62109 0 -1.1289 -0.50391 -1.1289 -1.125 v -7.0664 c -2.1367 -0.25391 -4.1289 -1.2188 -5.6484 -2.7422 c -0.32812 -0.32812 -0.62891 -0.67578 -0.90234 -1.0469 l -13.656 7.8828 c 1.1953 2.7773 1.0078 5.9609 -0.50781 8.582 c -1.5117 2.6211 -4.1719 4.375 -7.1758 4.7305 v 4.3164 c 0.57422 0.17969 1.0938 0.49609 1.5156 0.92578 c 0.47266 0.46484 0.8125 1.0547 0.98047 1.6953 h 9.5273 c 0.625 0 1.1328 0.50781 1.1328 1.1328 s -0.50781 1.1328 -1.1328 1.1328 h -9.6484 c -0.1875 0.5 -0.48047 0.95703 -0.85937 1.332 c -0.42578 0.42578 -0.94531 0.74219 -1.5156 0.92578 v 2.9531 c 3.1719 0.38672 5.9336 2.3555 7.332 5.2305 c 1.3984 2.8711 1.2422 6.2617 -0.41406 8.9961 l 13.953 8.0547 c 1.5352 -2.4844 4.1211 -4.1328 7.0234 -4.4766 v -7.8047 c 0 -0.625 0.50391 -1.1289 1.1289 -1.1289 s 1.1289 0.50391 1.1289 1.1289 v 7.8047 v -0.003906 c 2.9023 0.34375 5.4883 1.9922 7.0234 4.4766 z m -8.1562 -70.605 c 1.8555 0.003906 3.5352 1.0898 4.2969 2.7812 s 0.46094 3.6719 -0.76953 5.0586 c 0.29297 0.11719 0.58594 0.25 0.86328 0.39453 c 0.85547 0.44531 1.6367 1.0117 2.3242 1.6875 c 0.98828 -2.2695 0.76953 -4.8828 -0.58203 -6.9531 c -1.3555 -2.0664 -3.6641 -3.3164 -6.1367 -3.3164 s -4.7812 1.25 -6.1328 3.3164 c -1.3555 2.0703 -1.5742 4.6836 -0.58203 6.9531 c 0.68359 -0.67578 1.4688 -1.2422 2.3203 -1.6875 c 0.28125 -0.14453 0.57031 -0.27734 0.87109 -0.39453 c -1.2344 -1.3867 -1.5391 -3.3672 -0.77734 -5.0625 c 0.76172 -1.6914 2.4492 -2.7773 4.3047 -2.7773 z m 1.7344 2.9766 v 0.003906 c -0.82812 -0.82422 -2.1211 -0.94922 -3.0898 -0.30078 c -0.96875 0.65234 -1.3438 1.8945 -0.89844 2.9727 c 0.44922 1.0781 1.5977 1.6914 2.7383 1.4609 c 1.1445 -0.22656 1.9688 -1.2344 1.9688 -2.3984 c 0.003906 -0.65234 -0.25391 -1.2773 -0.71875 -1.7344 z m 3.7266 8.8867 l -0.003907 0.003906 c -1.3906 -1.5547 -3.375 -2.4414 -5.4609 -2.4414 c -2.0859 0 -4.0703 0.88672 -5.4609 2.4414 c 0.089844 0.10547 0.1875 0.19531 0.27734 0.29297 c 1.3281 1.3281 3.1172 2.0977 4.9961 2.1445 h 0.38281 c 1.8789 -0.046874 3.6641 -0.81641 4.9922 -2.1445 c 0.097656 -0.097656 0.1875 -0.19141 0.27734 -0.29297 z m 25.742 28.883 c -0.5 -0.50781 -1.2891 -0.58594 -1.8828 -0.19531 c -0.59375 0.39453 -0.82422 1.1523 -0.55469 1.8086 c 0.27344 0.66016 0.97266 1.0352 1.6719 0.89453 c 0.69531 -0.14062 1.1992 -0.75391 1.1953 -1.4648 c 0 -0.39063 -0.15234 -0.76563 -0.42969 -1.043 z m -60.305 0 h -0.003907 c -0.5 -0.50781 -1.2891 -0.58594 -1.8789 -0.19531 c -0.59375 0.39453 -0.82422 1.1523 -0.55469 1.8086 c 0.27344 0.66016 0.96875 1.0352 1.668 0.89453 c 0.69922 -0.14062 1.1992 -0.75391 1.1992 -1.4648 c 0 -0.39063 -0.15625 -0.76563 -0.43359 -1.043 z m -1.0469 10.066 l -0.003906 -0.003906 c 1.8203 0.003906 3.4688 1.0703 4.2188 2.7227 c 0.75391 1.6562 0.46875 3.5977 -0.72656 4.9688 c 0.27734 0.11328 0.55469 0.23438 0.82031 0.375 c 0.82422 0.42969 1.582 0.97656 2.25 1.625 c 0.95312 -2.207 0.73438 -4.75 -0.58594 -6.7617 c -1.3242 -2.0156 -3.5703 -3.2266 -5.9766 -3.2266 c -2.4102 0 -4.6562 1.2109 -5.9766 3.2266 c -1.3203 2.0117 -1.543 4.5547 -0.58594 6.7617 c 0.66406 -0.64844 1.4219 -1.1953 2.2461 -1.625 c 0.26562 -0.14062 0.54688 -0.26172 0.82031 -0.375 h 0.003907 c -1.1992 -1.3711 -1.4844 -3.3125 -0.73047 -4.9688 s 2.4062 -2.7227 4.2227 -2.7227 z m 1.6836 2.957 v -0.003906 c -0.80469 -0.80469 -2.0625 -0.93359 -3.0117 -0.30469 c -0.94922 0.63281 -1.3164 1.8438 -0.88672 2.8945 c 0.43359 1.0508 1.5508 1.6523 2.668 1.4297 c 1.1172 -0.21875 1.9219 -1.1953 1.9219 -2.3359 c 0 -0.62891 -0.24609 -1.2344 -0.69141 -1.6836 z m 3.6211 8.6836 c -1.3555 -1.5078 -3.2852 -2.3672 -5.3125 -2.3672 s -3.9609 0.85938 -5.3164 2.3672 c 0.085937 0.089844 0.17188 0.18359 0.25781 0.26562 h -0.003906 c 1.3164 1.3242 3.0977 2.0742 4.9609 2.0977 h 0.19531 c 1.8633 -0.023437 3.6445 -0.77344 4.957 -2.0977 c 0.085938 -0.085937 0.17188 -0.17578 0.25781 -0.26562 z m 55 -11.531 c 1.8867 -0.003906 3.5938 1.1055 4.3633 2.8281 c 0.76562 1.7227 0.44922 3.7344 -0.80859 5.1367 c 0.30859 0.12109 0.61328 0.25781 0.90625 0.41406 c 0.875 0.45312 1.6797 1.0352 2.3789 1.7266 c 0.41797 -0.95312 0.63281 -1.9883 0.63281 -3.0312 c 0.003906 -2.2578 -1.0156 -4.3945 -2.7695 -5.8125 c -1.75 -1.4219 -4.0508 -1.9766 -6.2578 -1.5078 c -2.2109 0.46484 -4.0898 1.9062 -5.1133 3.9141 c -1.0273 2.0117 -1.0898 4.375 -0.17578 6.4375 c 0.69922 -0.69141 1.5 -1.2734 2.3711 -1.7266 c 0.29688 -0.15625 0.60156 -0.29297 0.91406 -0.41406 c -1.2617 -1.4023 -1.5781 -3.4141 -0.80859 -5.1367 c 0.76953 -1.7227 2.4766 -2.832 4.3633 -2.8281 z m 1.7773 2.9922 c -0.59766 -0.58984 -1.4453 -0.84766 -2.2695 -0.68359 c -0.82031 0.16406 -1.5078 0.72656 -1.8281 1.5039 c -0.32422 0.77344 -0.23828 1.6562 0.22656 2.3555 c 0.46094 0.69922 1.2422 1.1211 2.082 1.125 h 0.011719 h -0.003906 c 1.0195 0.003906 1.9414 -0.61328 2.332 -1.5547 c 0.38672 -0.94141 0.16797 -2.0273 -0.55469 -2.7461 z m 3.8047 9.0508 c -2.2773 -2.5391 -5.9805 -3.2227 -9.0156 -1.668 c -0.8125 0.42188 -1.543 0.98828 -2.1523 1.668 c 0.097657 0.11328 0.19531 0.21094 0.30078 0.31641 h -0.003906 c 1.3047 1.3125 3.0547 2.0938 4.9062 2.1836 h 0.1875 h 0.003906 c 0.027344 0 0.058594 0.003906 0.085937 0.003906 h 0.21094 c 0.03125 0 0.058593 -0.003906 0.089843 -0.003906 c 1.918 -0.042969 3.7422 -0.82812 5.0977 -2.1875 c 0.10547 -0.10547 0.19922 -0.20312 0.29297 -0.31641 z m -5.5781 -45.559 c 1.8555 0 3.5391 1.0898 4.2969 2.7812 c 0.76172 1.6914 0.46094 3.6758 -0.77344 5.0625 c 0.29297 0.11719 0.58594 0.25 0.86719 0.39453 c 0.85156 0.44531 1.6289 1.0117 2.3164 1.6836 c 0.98828 -2.2656 0.76953 -4.8789 -0.58203 -6.9492 c -1.3555 -2.0703 -3.6641 -3.3164 -6.1367 -3.3164 c -2.4727 0 -4.7812 1.2461 -6.1328 3.3164 c -1.3555 2.0703 -1.5742 4.6836 -0.58203 6.9492 c 0.68359 -0.67188 1.4648 -1.2383 2.3164 -1.6836 c 0.28125 -0.14453 0.57031 -0.27734 0.87109 -0.39453 h -0.003906 c -1.2305 -1.3867 -1.5352 -3.3711 -0.77344 -5.0625 s 2.4453 -2.7812 4.3008 -2.7773 z m 1.7344 2.9805 c -0.82812 -0.82422 -2.1211 -0.94922 -3.0898 -0.29688 c -0.97266 0.64844 -1.3477 1.8945 -0.89844 2.9727 c 0.44531 1.0781 1.5938 1.6914 2.7383 1.4609 c 1.1445 -0.22656 1.9688 -1.2344 1.9688 -2.4023 c 0 -0.64844 -0.25781 -1.2734 -0.71875 -1.7344 z m 3.7227 8.8828 c -0.59766 -0.66406 -1.3086 -1.2109 -2.0977 -1.6211 c -2.1094 -1.0898 -4.6172 -1.0898 -6.7266 0 c -0.79297 0.41016 -1.5078 0.95703 -2.1055 1.6211 c 0.089844 0.10547 0.1875 0.20312 0.28125 0.29297 h 0.003906 c 1.3242 1.332 3.1094 2.1016 4.9883 2.1484 h 0.007812 h 0.085938 h 0.20312 h 0.085938 h 0.007812 h -0.003906 c 1.875 -0.046874 3.6641 -0.81641 4.9883 -2.1484 c 0.097656 -0.089844 0.1875 -0.19141 0.27734 -0.29297 z m -65.77 -11.859 c 1.8555 0 3.5391 1.0898 4.2969 2.7812 c 0.76172 1.6914 0.45703 3.6719 -0.77734 5.0586 c 0.30078 0.11719 0.58594 0.25 0.87109 0.39453 c 0.85156 0.44531 1.6328 1.0117 2.3164 1.6836 c 0.99219 -2.2656 0.77344 -4.8789 -0.58203 -6.9492 c -1.3555 -2.0703 -3.6602 -3.3164 -6.1328 -3.3164 c -2.4766 0 -4.7812 1.2461 -6.1367 3.3164 c -1.3516 2.0703 -1.5703 4.6836 -0.58203 6.9492 c 0.6875 -0.67188 1.4688 -1.2422 2.3203 -1.6836 c 0.28125 -0.14453 0.57031 -0.27734 0.87109 -0.39453 c -1.2305 -1.3867 -1.5352 -3.3711 -0.77344 -5.0625 c 0.76172 -1.6914 2.4453 -2.7812 4.3008 -2.7773 z m 1.7344 2.9766 h 0.003907 c -0.82813 -0.82422 -2.1211 -0.94922 -3.0938 -0.29688 c -0.96875 0.64844 -1.3438 1.8945 -0.89844 2.9727 c 0.44922 1.0781 1.5977 1.6914 2.7422 1.4609 c 1.1445 -0.22656 1.9688 -1.2344 1.9688 -2.4023 c 0 -0.64844 -0.25781 -1.2734 -0.71875 -1.7344 z m 3.7266 8.8828 c -1.3906 -1.5508 -3.3789 -2.4375 -5.4609 -2.4375 c -2.0859 0 -4.0703 0.88672 -5.4648 2.4375 c 0.089844 0.10547 0.18359 0.20312 0.27734 0.29297 c 1.3281 1.332 3.1172 2.1016 4.9961 2.1484 h 0.089844 h 0.19531 h 0.089844 h 0.003906 c 1.8789 -0.046874 3.668 -0.81641 4.9961 -2.1484 c 0.097656 -0.089844 0.1875 -0.19141 0.27734 -0.29297 z m 24.691 1.9492 c 2.5352 -0.003906 4.8242 1.5273 5.793 3.8711 s 0.43359 5.0391 -1.3633 6.832 c -0.085938 0.085938 -0.17188 0.17188 -0.26172 0.25 c 2.1484 0.70703 4.0781 1.957 5.6016 3.625 c 1.7656 -3.4102 1.625 -7.4961 -0.37109 -10.777 c -1.9961 -3.2812 -5.5586 -5.2852 -9.3984 -5.2852 s -7.4023 2.0039 -9.3984 5.2852 c -1.9961 3.2812 -2.1367 7.3672 -0.37109 10.777 c 1.5273 -1.6641 3.4531 -2.9141 5.5977 -3.625 c -0.089844 -0.078125 -0.17578 -0.16406 -0.26172 -0.25 c -1.7891 -1.793 -2.3242 -4.4883 -1.3555 -6.832 c 0.96875 -2.3398 3.2539 -3.8711 5.7891 -3.8711 z m 2.8438 3.4336 c -1.3555 -1.3555 -3.4766 -1.5625 -5.0703 -0.5 s -2.2109 3.1055 -1.4805 4.875 c 0.73438 1.7695 2.6133 2.7734 4.4922 2.3984 s 3.2305 -2.0234 3.2305 -3.9375 c 0 -1.0625 -0.42188 -2.082 -1.1719 -2.8359 z m -2.0195 19.316 c -0.035157 0.003906 -0.078125 0.003906 -0.11719 0.011719 h -0.058593 v -0.003906 c -0.035157 0.003906 -0.070313 0.003906 -0.10547 0 l -0.058594 0.003906 h -0.16406 v 0.003906 c -0.046874 0.003906 -0.09375 0.007812 -0.14062 0.003906 h -0.36719 c -0.046875 0.003906 -0.09375 0 -0.14062 -0.003906 h -0.16406 l -0.054687 -0.003906 v -0.003906 c -0.035156 0.003906 -0.070313 0.003906 -0.10547 0 h -0.054687 c -0.042969 -0.003907 -0.078125 -0.003907 -0.12109 -0.011719 h -0.13281 v 0.003906 c -0.046874 -0.007813 -0.09375 -0.011719 -0.14062 -0.011719 h -0.027344 h 0.003906 c -7.0742 -0.60156 -12.418 -6.6719 -12.117 -13.766 c 0.30078 -7.0938 6.1406 -12.691 13.238 -12.691 c 7.1016 0 12.938 5.5977 13.242 12.691 c 0.30078 7.0938 -5.043 13.164 -12.117 13.766 h -0.023438 c -0.046875 0 -0.09375 0.003906 -0.14453 0.011719 z m 7.6523 -6.2227 c -2.0898 -2.5273 -5.1953 -3.9922 -8.4766 -3.9922 s -6.3867 1.4648 -8.4766 3.9922 c 0.21875 0.26562 0.45312 0.52734 0.69922 0.76953 c 1.9219 1.9258 4.4922 3.0664 7.207 3.207 h 0.007812 c 0.046875 0.003907 0.09375 0.003907 0.13672 0.003907 c 0.046875 0.003906 0.089843 0.007812 0.13672 0.003906 h 0.015624 h 0.12891 h 0.30078 h 0.12891 h 0.015625 h -0.003906 c 0.042969 0.003906 0.085937 0 0.12891 -0.003906 c 0.046875 0 0.09375 0 0.14453 -0.003907 c 2.7148 -0.13672 5.2852 -1.2812 7.207 -3.207 c 0.24609 -0.24609 0.48047 -0.50391 0.69922 -0.76953 z" stroke-linecap="round" />
</g>
</svg>