<svg width="69" height="80" viewBox="0 0 69 80" fill="none" xmlns="http://www.w3.org/2000/svg">
<rect x="1.5" y="1.49609" width="65.0801" height="77" fill="white"/>
<rect x="1.5" y="1.49609" width="65.0801" height="77" stroke="#2DACC9" stroke-width="3"/>
<rect x="1.5" y="1.49609" width="65.0801" height="77" stroke="#2DACC9" stroke-width="3"/>
<rect x="1.5" y="1.49609" width="65.0801" height="77" stroke="#2DACC9" stroke-width="3"/>
<rect x="8.83984" y="12.1094" width="51.6271" height="60.2653" fill="white"/>
<rect x="8.83984" y="12.1094" width="51.6271" height="60.2653" stroke="#2DACC9" stroke-width="3"/>
<rect x="8.83984" y="12.1094" width="51.6271" height="60.2653" stroke="#2DACC9" stroke-width="3"/>
<rect x="8.83984" y="12.1094" width="51.6271" height="60.2653" stroke="#2DACC9" stroke-width="3"/>
<rect x="28.8125" y="7.20898" width="12.4913" height="7.20408" stroke="#2DACC9" stroke-width="3"/>
<rect x="28.5352" y="10.6094" width="12.6376" height="2.44898" fill="white"/>
<line x1="28.5352" y1="22.9844" x2="57.887" y2="22.9844" stroke="#2DACC9" stroke-width="3"/>
<line x1="28.5352" y1="35.2324" x2="57.887" y2="35.2324" stroke="#2DACC9" stroke-width="3"/>
<line x1="28.5352" y1="48.7012" x2="57.887" y2="48.7012" stroke="#2DACC9" stroke-width="3"/>
<line x1="28.1289" y1="63.3945" x2="57.4808" y2="63.3945" stroke="#2DACC9" stroke-width="3"/>
<path d="M20.7925 22.0707L15.875 28.9757L13.0469 25.0045L14.5243 22.93L15.875 24.8266L19.3151 19.9961L20.7925 22.0707Z" fill="#2DACC9"/>
<path d="M20.7925 34.3148L15.875 41.2198L13.0469 37.2487L14.5243 35.1741L15.875 37.0707L19.3151 32.2402L20.7925 34.3148Z" fill="#2DACC9"/>
<path d="M20.7925 47.7835L15.875 54.6886L13.0469 50.7174L14.5243 48.6429L15.875 50.5395L19.3151 45.709L20.7925 47.7835Z" fill="#2DACC9"/>
<path d="M20.7925 61.2542L15.875 68.1593L13.0469 64.1881L14.5243 62.1136L15.875 64.0102L19.3151 59.1797L20.7925 61.2542Z" fill="#2DACC9"/>
</svg>
