<svg width="91" height="67" viewBox="0 0 91 67" fill="none" xmlns="http://www.w3.org/2000/svg">
<path d="M90 1H1V50.3714H23.25V65L48.6786 50.3714H90V1Z" stroke="#2DACC9" stroke-width="2"/>
<path d="M26.5 19.8143L27.7032 24.0112L27.8071 24.3734H28.1839L32.2391 24.3734L28.9067 27.1173L28.6535 27.3258L28.7439 27.6411L29.9844 31.9682L26.8178 29.3607L26.5 29.099L26.1822 29.3607L23.0156 31.9682L24.2561 27.6411L24.3465 27.3258L24.0933 27.1173L20.7609 24.3734L24.8161 24.3734H25.1929L25.2968 24.0112L26.5 19.8143Z" stroke="#2DACC9"/>
<path d="M44.5 19.8143L45.7032 24.0112L45.8071 24.3734H46.1839L50.2391 24.3734L46.9067 27.1173L46.6535 27.3258L46.7439 27.6411L47.9844 31.9682L44.8178 29.3607L44.5 29.099L44.1822 29.3607L41.0156 31.9682L42.2561 27.6411L42.3465 27.3258L42.0933 27.1173L38.7609 24.3734L42.8161 24.3734H43.1929L43.2968 24.0112L44.5 19.8143Z" stroke="#2DACC9"/>
<path d="M62.5 19.8143L63.7032 24.0112L63.8071 24.3734H64.1839L68.2391 24.3734L64.9067 27.1173L64.6535 27.3258L64.7439 27.6411L65.9844 31.9682L62.8178 29.3607L62.5 29.099L62.1822 29.3607L59.0156 31.9682L60.2561 27.6411L60.3465 27.3258L60.0933 27.1173L56.7609 24.3734L60.8161 24.3734H61.1929L61.2968 24.0112L62.5 19.8143Z" stroke="#2DACC9"/>
</svg>
